<?xml version="1.0" encoding="UTF-8"?> <svg xmlns="http://www.w3.org/2000/svg" width="56" height="56" viewBox="0 0 56 56" fill="none"> <path fill-rule="evenodd" clip-rule="evenodd" d="M19 28C19 27.4477 19.4477 27 20 27H36C36.5523 27 37 27.4477 37 28C37 28.5523 36.5523 29 36 29H20C19.4477 29 19 28.5523 19 28Z" fill="white"></path> <path fill-rule="evenodd" clip-rule="evenodd" d="M19 22C19 21.4477 19.4477 21 20 21L36 21C36.5523 21 37 21.4477 37 22C37 22.5523 36.5523 23 36 23L20 23C19.4477 23 19 22.5523 19 22Z" fill="white"></path> <path fill-rule="evenodd" clip-rule="evenodd" d="M19 34C19 33.4477 19.4477 33 20 33H36C36.5523 33 37 33.4477 37 34C37 34.5523 36.5523 35 36 35H20C19.4477 35 19 34.5523 19 34Z" fill="white"></path> </svg> 