<?xml version="1.0" encoding="UTF-8"?> <svg xmlns="http://www.w3.org/2000/svg" width="57" height="57" viewBox="0 0 57 57" fill="none"> <path d="M48.8537 13.9037V20.3597C48.8537 22.6081 50.6765 24.4308 52.9249 24.4308C55.1733 24.4308 56.996 22.6081 56.996 20.3597V4.07511C56.996 2.96441 56.5512 1.9576 55.8301 1.22307C55.8125 1.20519 55.7948 1.18747 55.7769 1.16992C55.3928 0.792714 54.9525 0.507032 54.4832 0.312875C54.0032 0.113824 53.4769 0.00396166 52.9249 0.00396166L36.6403 0.0039602C34.3919 0.00395996 32.5692 1.82667 32.5692 4.0751C32.5692 6.32354 34.3919 8.14625 36.6403 8.14625L43.0963 8.14625L25.6193 25.6232C24.0294 27.2131 24.0294 29.7908 25.6193 31.3807C27.2092 32.9706 29.7869 32.9706 31.3767 31.3807L48.8537 13.9037Z" fill="#CCCCCC"></path> <path fill-rule="evenodd" clip-rule="evenodd" d="M22.3915 0L22.3802 3.07826e-05C24.6286 -0.00609215 26.4624 1.82668 26.4624 4.0751V4.08317C26.4624 6.33159 24.6626 8.14151 22.4143 8.15425C22.4249 8.15419 22.4074 8.15429 22.4143 8.15425C22.4136 8.15425 22.4059 8.1543 22.3911 8.15438C19.7267 8.16944 17.2234 8.21232 15.8789 8.33417C13.9046 8.51311 12.9076 8.83633 12.2134 9.23711C10.9757 9.95175 9.94779 10.9796 9.23315 12.2174C8.83237 12.9116 8.50916 13.9085 8.33021 15.8829C8.1462 17.9132 8.14229 20.551 8.14229 24.4308V30.9447C8.14229 35.6151 8.14788 38.7908 8.41018 41.2118C8.66422 43.5566 9.11931 44.7058 9.69733 45.5013C10.1995 46.1926 10.8074 46.8004 11.4987 47.3027C12.2942 47.8807 13.4434 48.3358 15.7882 48.5898C18.2092 48.8521 21.3849 48.8577 26.0553 48.8577H32.5692C36.449 48.8577 39.0868 48.8538 41.1171 48.6698C43.0915 48.4908 44.0884 48.1676 44.7826 47.7668C46.0204 47.0522 47.0482 46.0243 47.7629 44.7866C48.1637 44.0924 48.4869 43.0954 48.6658 41.1211C48.7877 39.7766 48.8306 37.2733 48.8456 34.6088C48.8583 32.3604 50.6765 30.5375 52.9249 30.5375C55.1733 30.5375 57.0061 32.3601 56.9999 34.6085C56.9928 37.1573 56.9507 39.916 56.7749 41.856C56.5447 44.3951 56.0498 46.7177 54.8143 48.8577C53.385 51.3333 51.3293 53.389 48.8537 54.8183C46.7138 56.0538 44.3912 56.5487 41.8521 56.7788C39.4106 57.0001 36.4022 57.0001 32.7567 57H25.8287C21.4418 57.0001 17.8225 57.0002 14.9112 56.6847C11.8736 56.3556 9.12766 55.6444 6.71275 53.8899C5.33027 52.8855 4.11451 51.6697 3.11008 50.2872C1.35555 47.8723 0.644359 45.1264 0.31526 42.0888C-0.000167192 39.1775 -8.95312e-05 35.5582 3.16458e-06 31.1713V24.2434C-6.13827e-05 20.5978 -0.000113549 17.5894 0.221161 15.1479C0.451289 12.6088 0.946215 10.2862 2.18173 8.14625C3.611 5.67068 5.66673 3.61495 8.14229 2.18568C10.2823 0.950172 12.6049 0.455246 15.144 0.225117C17.0879 0.0489299 19.8439 0.0069386 22.3915 0Z" fill="#CCCCCC"></path> </svg> 